<svg xmlns="http://www.w3.org/2000/svg" xmlns:xlink="http://www.w3.org/1999/xlink" version="1.1" width="24.75" height="24.75" style="enable-background:new 0 0 24.75 24.75;" xml:space="preserve"><rect id="backgroundrect" width="100%" height="100%" x="0" y="0" fill="none" stroke="none"/>
















<g class="currentLayer" style=""><title>Layer 1</title><g id="svg_1" class="" fill-opacity="1" fill="#a3cc38">
	<path d="M0,3.875c0-1.104,0.896-2,2-2h20.75c1.104,0,2,0.896,2,2s-0.896,2-2,2H2C0.896,5.875,0,4.979,0,3.875z M22.75,10.375H2   c-1.104,0-2,0.896-2,2c0,1.104,0.896,2,2,2h20.75c1.104,0,2-0.896,2-2C24.75,11.271,23.855,10.375,22.75,10.375z M22.75,18.875H2   c-1.104,0-2,0.896-2,2s0.896,2,2,2h20.75c1.104,0,2-0.896,2-2S23.855,18.875,22.75,18.875z" id="svg_2" fill="#a3cc38"/>
</g><g id="svg_3">
</g><g id="svg_4">
</g><g id="svg_5">
</g><g id="svg_6">
</g><g id="svg_7">
</g><g id="svg_8">
</g><g id="svg_9">
</g><g id="svg_10">
</g><g id="svg_11">
</g><g id="svg_12">
</g><g id="svg_13">
</g><g id="svg_14">
</g><g id="svg_15">
</g><g id="svg_16">
</g><g id="svg_17">
</g></g></svg>