<svg xmlns="http://www.w3.org/2000/svg" enable-background="new 0 0 512 512" height="512" width="512"><rect id="backgroundrect" width="100%" height="100%" x="0" y="0" fill="none" stroke="none"/><g class="currentLayer" style=""><title>Layer 1</title><g id="svg_1" class="selected" fill-opacity="1" fill="#29a5dd"><path d="m503.352 389.813-191.649-331.946c-11.453-19.838-32.797-32.161-55.703-32.161s-44.25 12.323-55.703 32.16l-94.757 164.126c-2.071 3.587-.842 8.174 2.745 10.245 3.586 2.071 8.173.842 10.245-2.745l94.757-164.125c8.782-15.211 25.149-24.66 42.713-24.66s33.931 9.449 42.713 24.66l191.649 331.946c4.342 7.521 6.638 16.039 6.638 24.63-.001 27.212-22.139 49.351-49.351 49.351h-383.298c-27.212 0-49.351-22.139-49.351-49.351 0-8.592 2.295-17.108 6.638-24.63l80.376-139.214c2.071-3.587.842-8.174-2.745-10.245-3.587-2.072-8.174-.842-10.245 2.745l-80.377 139.214c-5.657 9.799-8.647 20.909-8.647 32.13 0 35.483 28.868 64.351 64.351 64.351h383.298c35.483 0 64.351-28.868 64.351-64.351 0-11.221-2.99-22.331-8.648-32.13z" id="svg_2" fill="#29a5dd"/><path d="m447.649 434.782h-141.547c-4.142 0-7.5 3.358-7.5 7.5s3.358 7.5 7.5 7.5h141.548c10.054 0 19.057-5.198 24.083-13.905 5.027-8.707 5.027-19.103 0-27.809l-191.65-331.946c-5.026-8.707-14.03-13.905-24.083-13.905-10.054 0-19.057 5.198-24.084 13.905l-191.649 331.947c-5.027 8.706-5.027 19.102 0 27.809s14.03 13.905 24.083 13.905h209.663c4.142 0 7.5-3.358 7.5-7.5s-3.358-7.5-7.5-7.5h-209.662c-4.631 0-8.778-2.395-11.093-6.405s-2.315-8.798 0-12.809l191.649-331.947c2.316-4.01 6.462-6.405 11.093-6.405s8.778 2.394 11.093 6.405l191.649 331.947c2.315 4.01 2.315 8.798 0 12.809-2.315 4.01-6.462 6.404-11.093 6.404z" id="svg_3" fill="#29a5dd"/><path d="m279.855 178.142c-2.6-2.767-6.269-4.354-10.065-4.354h-29.464c-3.797 0-7.466 1.587-10.065 4.354-2.6 2.767-3.956 6.527-3.719 10.316l6.575 105.564c.452 7.264 6.507 12.954 13.785 12.954h16.314c7.278 0 13.333-5.69 13.785-12.953l6.575-105.564c.234-3.79-1.121-7.55-3.721-10.317zm-17.757 113.834h-14.081l-6.427-103.188h26.935z" id="svg_4" fill="#29a5dd"/><path d="m255.058 325.378c-14.391 0-26.098 11.708-26.098 26.099s11.708 26.098 26.098 26.098c14.391 0 26.098-11.708 26.098-26.098 0-14.391-11.708-26.099-26.098-26.099zm0 37.196c-6.12 0-11.098-4.979-11.098-11.098s4.979-11.099 11.098-11.099c6.12 0 11.098 4.979 11.098 11.099s-4.979 11.098-11.098 11.098z" id="svg_5" fill="#29a5dd"/></g></g></svg>